<svg id="addd74fe-aed3-44fe-99ae-3d49d08888ee" data-name="Layer 1" xmlns="http://www.w3.org/2000/svg" width="53" height="45" viewBox="0 0 53 45">
  <defs>
    <style>
      .ac77fedf-8d35-4960-a33f-35e932e7690f {
        fill: #ffecb2;
      }
    </style>
  </defs>
  <path class="ac77fedf-8d35-4960-a33f-35e932e7690f" d="M49,24.5a1.79,1.79,0,0,1-2.15,1.36l-3.51-.8-1.52,6.73-7-8.65L23.45,20.55A1.79,1.79,0,0,1,22.1,18.4L25.68,2.6a1.8,1.8,0,0,1,2.15-1.36L51.24,6.55A1.78,1.78,0,0,1,52.59,8.7Z"/>
  <path class="ac77fedf-8d35-4960-a33f-35e932e7690f" d="M5.27,38.37l2-8.77L5.7,29.24A3.79,3.79,0,0,1,2.83,24.7L6.41,8.9A3.8,3.8,0,0,1,11,6l23.41,5.31a3.79,3.79,0,0,1,2.87,4.54l-3.56,15.7a3.8,3.8,0,0,1-4.55,2.87L18.4,32ZM5.8,26.29l6.26,1.19L10,33.16l8-4.33,12.9,2.7L34.4,14.12,10.29,8.88Z"/>
</svg>
