<svg id="a0f7992e-d99d-4f17-b6fd-ec0d08ab81f9" data-name="Layer 1" xmlns="http://www.w3.org/2000/svg" width="339" height="456" viewBox="0 0 339 456">
  <defs>
    <style>
      .f025da74-c976-4b8b-b266-c7fb5feee011 {
        fill: #a5d4a6;
      }
    </style>
  </defs>
  <path class="f025da74-c976-4b8b-b266-c7fb5feee011" d="M301.84,60.28l2-4.38c-16.18,3.22-30.4,9.36-42.35,18.41a87.53,87.53,0,0,0-29.23,38.92,78.14,78.14,0,0,0-3.91,14.38,55.79,55.79,0,0,0-18.81,2.85c-12.5,3.93-21.33,13.8-27.85,31-5.75,15.26-9.08,34.38-13,56.51-3.58,20.54-7.64,43.82-14.42,66.59-7.71,26-17.83,47.5-30.89,65.67-10.79,15-23.72,26.82-38.4,35.1a120.46,120.46,0,0,1-43.22,14.05A174.31,174.31,0,0,1,0,399.84l10.39,4.64a162.25,162.25,0,0,0,31.92-1.21,124.74,124.74,0,0,0,44.61-14.54c15.18-8.54,28.51-20.72,39.64-36.2C139.87,334,150.18,312.14,158,285.7c6.83-23,10.92-46.37,14.51-67,3.82-21.94,7.14-40.89,12.76-55.81,6.05-16.06,14.12-25.18,25.38-28.72a51.22,51.22,0,0,1,17.09-2.68,57.41,57.41,0,0,0-.32,6.32c.06,7.35,1.8,13.07,4.89,16.06a8,8,0,0,0,9.12,1.59,13.8,13.8,0,0,0,7.55-6.67,11.64,11.64,0,0,0,.34-9.09c-1.81-4.93-6.5-8.86-12.91-10.77a33.16,33.16,0,0,0-4.24-.94,75.06,75.06,0,0,1,3.67-13.38,83.66,83.66,0,0,1,27.93-37.2A97.89,97.89,0,0,1,301.84,60.28Zm-66.51,72.38c5.2,1.56,9,4.62,10.36,8.38,1.63,4.52-.61,8.77-5.73,10.85a4.21,4.21,0,0,1-4.91-.77c-2.29-2.24-3.65-7.08-3.71-13.3a45.61,45.61,0,0,1,.31-6A24.26,24.26,0,0,1,235.33,132.66Z"/>
  <path class="f025da74-c976-4b8b-b266-c7fb5feee011" d="M338.75,49.75l-53.86-11.5,7.75,14.41,32.41-1L295.5,58h0l-8.74,9.91,13.09-1.84,5.51,10.24Z"/>
</svg>
