<svg id="b2355c7f-c831-4699-9d2e-da10c8473cf8" data-name="Layer 1" xmlns="http://www.w3.org/2000/svg" width="43" height="48" viewBox="0 0 43 48">
  <defs>
    <style>
      .a018cde7-6994-4b6a-b634-1c9d4ae2c2fb {
        fill: #95c8ec;
      }
    </style>
  </defs>
  <path class="a018cde7-6994-4b6a-b634-1c9d4ae2c2fb" d="M11.2,13.39,0,18,12.5,48l30-12.5-4.8-11.6c-.1-.1-.1-.1-.2-.1s-.1-.1-.2-.1-.2-.1-.4-.1h-.7a.37.37,0,0,0-.3.1,1.47,1.47,0,0,0-.9,1,5.15,5.15,0,0,1-3.1,3.5,5.36,5.36,0,0,1-4.1-9.9,5.18,5.18,0,0,1,4.7.3,1.69,1.69,0,0,0,1.4.1.35.35,0,0,0,.2-.1.1.1,0,0,0,.1-.1l.1-.1.1-.1.1-.1.1-.1V18c.1-.1.1-.2.2-.3v-.4L30,5.59l-11.2,4.7a1.53,1.53,0,0,1-1.9-.9A1.69,1.69,0,0,1,17,8a5.18,5.18,0,0,0,.3-4.7,5.36,5.36,0,1,0-9.9,4.1,5.4,5.4,0,0,0,3.5,3.1,1.47,1.47,0,0,1,1,.9A1.53,1.53,0,0,1,11.2,13.39Z"/>
</svg>
