<svg id="a8c99158-2246-40c1-a3e3-d5c340b593b0" data-name="Layer 1" xmlns="http://www.w3.org/2000/svg" width="338" height="316" viewBox="0 0 338 316">
  <defs>
    <style>
      .f968a144-ea95-429d-949b-f77641f901a2 {
        fill: #f09b9b;
      }
    </style>
  </defs>
  <path class="f968a144-ea95-429d-949b-f77641f901a2" d="M118.33,85.83A81.86,81.86,0,0,0,96.87,56.12,80.76,80.76,0,0,0,69.69,40.7l2.08-3.52a85.12,85.12,0,0,1,27.72,15.9A86,86,0,0,1,122,84.25a85.65,85.65,0,0,1,6.81,37.85,80.5,80.5,0,0,1-1.27,10.57C138.79,147,145.87,163.83,151.82,180c1.45,3.94,2.87,8,4.24,11.86,5,14.22,10.24,28.9,17.56,42.24a138.84,138.84,0,0,0,33,39.92,130.17,130.17,0,0,0,45.41,24.61A124.58,124.58,0,0,0,272.61,303l-2.2,3.74a129.19,129.19,0,0,1-48.18-16.86,140.34,140.34,0,0,1-18.13-12.75,142.89,142.89,0,0,1-34-41.08c-7.45-13.62-12.73-28.45-17.8-42.8-1.37-3.89-2.8-7.91-4.25-11.82-5.48-14.91-11.9-30.31-21.66-43.64-3.36,12.9-9.93,24.32-19,32.63a55.11,55.11,0,0,1-23.88,12.81,47.88,47.88,0,0,1-26.9-.79,43.37,43.37,0,0,1-21.57-16.49,38.65,38.65,0,0,1-7-26c1.07-9.71,6.27-18.89,14.64-25.82a48.84,48.84,0,0,1,28.17-11.07A58.51,58.51,0,0,1,100,109.62,79.78,79.78,0,0,1,123.7,128.1c.15.18.31.34.45.52.33-2.2.53-4.44.66-6.69A81.68,81.68,0,0,0,118.33,85.83Zm2.4,44.9a75.78,75.78,0,0,0-22.56-17.54,54.45,54.45,0,0,0-27.09-6.12,44.64,44.64,0,0,0-25.8,10.15C37.71,123.49,33,131.74,32.06,140.4c-1.77,16,9.6,32.77,25.86,38.25a43.91,43.91,0,0,0,24.66.7,51.19,51.19,0,0,0,22.14-11.86c9.2-8.42,15.67-20.34,18.55-33.76C122.45,132.69,121.6,131.7,120.73,130.73Z"/>
  <path class="f968a144-ea95-429d-949b-f77641f901a2" d="M34,26.61l51.13-6.27L76.72,33.13,46.6,29.53l27,8.32h0v0l7.33,10L68.9,45l-6,9.08Z"/>
</svg>
